HIERARCHY
ROOT Hips
{
	OFFSET -0.001795 -0.223333 0.028219
	CHANNELS 6 Xposition Yposition Zposition Zrotation Yrotation Xrotation 
	JOINT LeftUpLeg
	{
		OFFSET 0.069520 -0.091406 -0.006815
		CHANNELS 3 Zrotation Yrotation Xrotation
		JOINT LeftLeg
		{
			OFFSET 0.034277 -0.375199 -0.004496
			CHANNELS 3 Zrotation Yrotation Xrotation
			JOINT LeftFoot
			{
				OFFSET -0.013596 -0.397961 -0.043693
				CHANNELS 3 Zrotation Yrotation Xrotation
				JOINT LeftToe
				{
					OFFSET 0.026358 -0.055791 0.119288
					CHANNELS 3 Zrotation Yrotation Xrotation
					End Site
					{
						OFFSET 0.000000 0.000000 0.000000
					}
				}
			}
		}
	}
	JOINT RightUpLeg
	{
		OFFSET -0.067670 -0.090522 -0.004320
		CHANNELS 3 Zrotation Yrotation Xrotation
		JOINT RightLeg
		{
			OFFSET -0.038290 -0.382569 -0.008850
			CHANNELS 3 Zrotation Yrotation Xrotation
			JOINT RightFoot
			{
				OFFSET 0.015774 -0.398415 -0.042312
				CHANNELS 3 Zrotation Yrotation Xrotation
				JOINT RightToe
				{
					OFFSET -0.025372 -0.048144 0.123348
					CHANNELS 3 Zrotation Yrotation Xrotation
					End Site
					{
						OFFSET 0.000000 0.000000 0.000000
					}
				}
			}
		}
	}
	JOINT Spine
	{
		OFFSET -0.002533 0.108963 -0.026696
		CHANNELS 3 Zrotation Yrotation Xrotation
		JOINT Spine1
		{
			OFFSET 0.005487 0.135180 0.001092
			CHANNELS 3 Zrotation Yrotation Xrotation
			JOINT Spine2
			{
				OFFSET 0.001457 0.052922 0.025425
				CHANNELS 3 Zrotation Yrotation Xrotation
				JOINT Neck
				{
					OFFSET -0.002778 0.213870 -0.042857
					CHANNELS 3 Zrotation Yrotation Xrotation
					JOINT Head
					{
						OFFSET 0.005152 0.064970 0.051349
						CHANNELS 3 Zrotation Yrotation Xrotation
						End Site
						{
							OFFSET 0.000000 0.000000 0.000000
						}
					}
				}
				JOINT LeftShoulder
				{
					OFFSET 0.078845 0.121749 -0.034090
					CHANNELS 3 Zrotation Yrotation Xrotation
					JOINT LeftArm
					{
						OFFSET 0.090977 0.030469 -0.008868
						CHANNELS 3 Zrotation Yrotation Xrotation
						JOINT LeftForeArm
						{
							OFFSET 0.259612 -0.012772 -0.027456
							CHANNELS 3 Zrotation Yrotation Xrotation
							JOINT LeftHand
							{
								OFFSET 0.249234 0.008986 -0.001171
								CHANNELS 3 Zrotation Yrotation Xrotation
								End Site
								{
									OFFSET 0.000000 0.000000 0.000000
								}
							}
						}
					}
				}
				JOINT RightShoulder
				{
					OFFSET -0.081759 0.118833 -0.038615
					CHANNELS 3 Zrotation Yrotation Xrotation
					JOINT RightArm
					{
						OFFSET -0.096012 0.032551 -0.009143
						CHANNELS 3 Zrotation Yrotation Xrotation
						JOINT RightForeArm
						{
							OFFSET -0.253742 -0.013329 -0.021401
							CHANNELS 3 Zrotation Yrotation Xrotation
							JOINT RightHand
							{
								OFFSET -0.255298 0.007772 -0.005559
								CHANNELS 3 Zrotation Yrotation Xrotation
								End Site
								{
									OFFSET 0.000000 0.000000 0.000000
								}
							}
						}
					}
				}
			}
		}
	}
}
MOTION
Frames: 17
Frame Time: 0.050000
0.000000 0.912619 0.000000 -1.494618 -5.762463 22.836278 5.964418 -0.842750 -43.075686 -1.827126 0.170770 23.206887 1.577913 4.818213 4.716415 0.000000 0.000000 0.000000 -4.258729 3.922265 -42.693216 5.532521 -0.423642 24.225333 -3.940371 -11.171173 1.062389 0.000000 0.000000 0.000000 3.402917 -2.251277 35.677338 0.304489 -0.081415 -0.717685 -4.265407 7.562084 8.104801 13.669048 -4.999812 -22.167092 0.000000 0.000000 0.000000 -5.185081 -33.744330 13.464470 -10.633126 -48.072688 -0.264580 69.451394 -36.321952 -22.506291 0.000000 0.000000 0.000000 -0.001372 23.509942 9.666776 14.550213 54.242227 3.043339 -70.004035 30.348947 -15.406882 0.000000 0.000000 0.000000 
-0.000110 0.911204 0.003387 -1.984548 -5.806352 22.570428 6.879606 -0.499276 -43.294353 -2.483663 0.414551 24.319921 1.046086 3.151540 2.770174 0.000000 0.000000 0.000000 -4.132410 3.991710 -42.815961 6.274474 -0.645391 24.745926 -4.600499 -12.838113 1.028681 0.000000 0.000000 0.000000 2.188839 -1.785319 36.895031 3.385659 -1.438546 0.187743 -6.344263 11.210843 5.569130 17.544600 -6.472270 -22.644558 0.000000 0.000000 0.000000 -5.430000 -33.035597 12.372012 -11.933671 -47.372196 0.059331 73.828711 -42.134042 -29.793043 0.000000 0.000000 0.000000 0.646977 20.732842 9.101349 17.487455 54.820453 5.140786 -72.135613 29.779698 -14.587586 0.000000 0.000000 0.000000 
0.000092 0.909054 0.006537 -1.975699 -5.441400 21.947181 6.949657 -0.546423 -43.450351 -2.191413 0.325497 26.503067 1.293707 3.011607 0.717653 0.000000 0.000000 0.000000 -3.649680 4.093381 -43.019351 5.195980 -0.313945 26.204471 -5.015229 -13.725579 0.481110 0.000000 0.000000 0.000000 2.896106 -2.141660 37.015501 1.590613 -0.635247 -0.669006 -5.472910 10.697873 6.280414 15.910594 -6.484478 -19.551036 0.000000 0.000000 0.000000 -9.699108 -33.869258 13.593501 -12.513053 -44.812739 0.324094 72.830718 -45.878993 -31.798169 0.000000 0.000000 0.000000 3.729239 21.470016 10.104195 17.228956 52.269995 4.191301 -72.393197 36.342342 -19.459068 0.000000 0.000000 0.000000 
0.000335 0.908244 0.008481 -1.761167 -5.324984 22.250979 6.897811 -0.568849 -44.652515 -1.962855 0.237751 27.321039 0.425988 0.935205 0.194622 0.000000 0.000000 0.000000 -3.859941 4.112099 -43.989925 5.221913 -0.319237 27.688093 -5.121666 -13.834285 -0.383799 0.000000 0.000000 0.000000 2.734991 -2.099857 37.148853 1.203818 -0.502256 0.726946 -5.906136 10.928987 5.404788 16.630541 -6.514431 -20.687099 0.000000 0.000000 0.000000 -9.249392 -32.558019 12.735612 -14.894791 -44.757893 1.149878 75.339943 -48.253091 -35.341662 0.000000 0.000000 0.000000 4.119250 19.673120 9.436197 21.896559 54.065820 6.741544 -74.619184 37.889322 -21.110349 0.000000 0.000000 0.000000 
0.000898 0.906553 0.009431 -1.260734 -4.728371 21.843757 6.332514 -0.903867 -44.400128 -2.489016 0.382530 27.691795 0.886550 1.525670 -0.933689 0.000000 0.000000 0.000000 -4.146957 3.910149 -44.022145 4.634623 -0.162849 28.339404 -4.988997 -13.429009 -0.478052 0.000000 0.000000 0.000000 2.807826 -2.225597 37.429382 1.110885 -0.459854 0.459789 -5.966454 11.105659 6.346386 17.113173 -7.294079 -18.973283 0.000000 0.000000 0.000000 -11.499876 -33.391554 13.428014 -14.892317 -42.946025 1.048123 78.279959 -49.219932 -38.030627 0.000000 0.000000 0.000000 6.311289 19.898236 10.116363 21.434267 52.912090 6.042431 -76.215788 40.513978 -23.671220 0.000000 0.000000 0.000000 
0.001518 0.906223 0.008691 -1.391555 -4.092254 22.208873 6.210611 -1.060507 -45.496995 -2.498809 0.342433 28.543537 0.604725 1.235601 -0.108006 0.000000 0.000000 0.000000 -3.968147 3.927463 -44.661315 4.423928 -0.129698 29.126000 -4.937653 -13.228779 -0.684644 0.000000 0.000000 0.000000 2.861917 -2.354367 37.710283 1.183592 -0.495232 0.361200 -5.761352 11.970143 6.671243 17.594254 -7.263686 -19.745971 0.000000 0.000000 0.000000 -10.838268 -33.692912 13.251511 -16.126112 -42.394220 1.311192 83.339868 -49.724665 -42.166914 0.000000 0.000000 0.000000 5.682668 19.378576 9.888770 22.564004 52.337694 6.538399 -79.727377 41.134434 -25.332206 0.000000 0.000000 0.000000 
0.002140 0.905755 0.007182 -1.236037 -3.526380 22.472511 5.705260 -1.359199 -46.305955 -2.126711 0.146116 28.576700 0.659721 1.546708 0.328856 0.000000 0.000000 0.000000 -4.208384 3.824508 -45.441575 4.317791 -0.134840 29.917197 -4.884549 -13.097845 -0.602622 0.000000 0.000000 0.000000 2.521504 -2.293762 37.775011 1.202340 -0.497752 -0.014153 -5.634600 12.171029 7.732520 17.744656 -7.117561 -20.562492 0.000000 0.000000 0.000000 -9.990970 -33.057427 12.735917 -17.074349 -42.496765 1.471732 89.778675 -48.768710 -46.016033 0.000000 0.000000 0.000000 5.048655 19.094537 9.661100 23.638380 52.501568 7.068356 -82.543668 40.301451 -25.646612 0.000000 0.000000 0.000000 
0.002936 0.906195 0.005611 -1.481047 -2.937961 23.131731 5.685480 -1.480935 -46.914026 -1.859491 0.001244 28.238156 0.724824 1.733502 0.398693 0.000000 0.000000 0.000000 -3.968479 3.880338 -46.221408 3.922265 -0.034949 30.019388 -4.647020 -12.504623 -0.474463 0.000000 0.000000 0.000000 2.793780 -2.522888 38.086712 1.037830 -0.411720 -0.604830 -5.695441 12.637251 8.257269 18.347395 -7.547015 -20.136605 0.000000 0.000000 0.000000 -8.949376 -32.484119 12.210234 -17.527101 -42.844006 1.517578 95.711685 -47.598951 -49.438974 0.000000 0.000000 0.000000 4.827249 18.173328 9.289837 23.287689 52.975366 7.090918 -85.257781 39.304369 -25.664985 0.000000 0.000000 0.000000 
0.004119 0.906814 0.004697 -1.773340 -2.727904 23.714123 5.685817 -1.514530 -47.325538 -1.507885 -0.140830 27.802224 0.443651 1.298450 0.834351 0.000000 0.000000 0.000000 -3.574458 4.031279 -46.672991 3.595481 0.066057 29.426222 -4.482707 -12.137329 -0.247083 0.000000 0.000000 0.000000 2.595859 -2.481658 38.307028 1.430921 -0.566548 -1.013258 -6.019680 12.919099 8.749555 18.446394 -7.320840 -20.990247 0.000000 0.000000 0.000000 -7.398843 -31.463740 11.483619 -18.130732 -44.247410 1.666528 98.818044 -45.567125 -49.825968 0.000000 0.000000 0.000000 4.201260 17.072627 8.696935 24.189329 54.495596 8.003200 -87.011118 37.288376 -24.282832 0.000000 0.000000 0.000000 
0.005714 0.906982 0.004242 -1.847457 -2.654806 23.946456 5.311759 -1.662655 -47.094645 -1.203273 -0.253313 26.974451 0.439631 1.369029 1.022398 0.000000 0.000000 0.000000 -3.444349 4.069179 -46.702436 3.258991 0.178840 29.061092 -4.455151 -12.118722 -0.050432 0.000000 0.000000 0.000000 2.539581 -2.496789 38.870188 1.511701 -0.578770 -1.673277 -6.259822 12.794482 9.635223 18.602466 -7.378097 -21.261562 0.000000 0.000000 0.000000 -5.449590 -31.226485 11.212218 -18.043064 -46.279990 1.635371 98.968846 -42.843961 -46.916397 0.000000 0.000000 0.000000 3.114666 16.305090 8.078591 24.554017 56.588916 8.855673 -86.641272 34.494229 -21.512675 0.000000 0.000000 0.000000 
0.007640 0.906254 0.003242 -2.141448 -2.812804 24.603346 5.526373 -1.548493 -47.831391 -1.111396 -0.272399 26.879477 0.405631 1.370399 1.216875 0.000000 0.000000 0.000000 -3.380467 4.192308 -47.336901 3.325401 0.153071 28.302945 -4.370800 -11.984632 0.079983 0.000000 0.000000 0.000000 2.548790 -2.511217 39.383408 1.530028 -0.587384 -1.565288 -6.651531 12.784664 9.218459 18.824095 -7.535400 -21.059277 0.000000 0.000000 0.000000 -3.800061 -31.688710 11.259846 -14.571362 -47.754388 0.432297 96.071483 -39.456034 -41.092253 0.000000 0.000000 0.000000 2.006849 16.646833 8.017957 21.623839 58.558814 8.065607 -84.088574 30.443356 -17.136582 0.000000 0.000000 0.000000 
0.009688 0.905205 0.001352 -2.134060 -2.812449 25.232469 5.441632 -1.589650 -48.798589 -0.934832 -0.341182 27.102868 0.264410 1.263331 1.695313 0.000000 0.000000 0.000000 -3.714236 4.190570 -48.526869 3.362473 0.130422 28.127970 -4.374985 -12.126636 0.398870 0.000000 0.000000 0.000000 2.665272 -2.627217 40.397996 1.722713 -0.661881 -1.706388 -7.333360 12.586288 8.940848 18.965486 -7.435097 -21.562346 0.000000 0.000000 0.000000 -1.356583 -32.964148 11.536960 -9.441129 -48.799682 -1.553646 92.947235 -34.174288 -33.603601 0.000000 0.000000 0.000000 -0.011657 17.373767 7.902585 15.672641 59.925202 5.492405 -80.479163 24.445159 -11.460649 0.000000 0.000000 0.000000 
0.011461 0.903807 -0.000875 -2.279996 -2.875819 26.324729 5.533454 -1.541601 -50.083664 -0.592562 -0.458612 26.932661 0.420809 1.757932 2.084823 0.000000 0.000000 0.000000 -4.223055 4.162348 -49.976237 3.843401 -0.042495 28.120049 -4.346826 -12.168899 0.553563 0.000000 0.000000 0.000000 2.633181 -2.648464 41.052482 2.000730 -0.763678 -1.959797 -7.643381 12.917275 8.870809 19.218406 -7.571595 -21.371813 0.000000 0.000000 0.000000 0.393710 -34.282042 11.829787 -2.167075 -49.625615 -4.527477 88.565678 -29.987871 -27.043736 0.000000 0.000000 0.000000 -1.469069 18.093665 7.956256 7.050741 60.157486 1.203264 -76.153854 19.270123 -6.977074 0.000000 0.000000 0.000000 
0.012690 0.903415 -0.002099 -2.688334 -3.047702 27.482433 5.919265 -1.326831 -51.184601 -0.344251 -0.523160 26.350321 0.262709 1.632327 2.638423 0.000000 0.000000 0.000000 -4.150374 4.351731 -51.076122 3.740286 -0.002264 27.406328 -4.193156 -11.909619 0.783158 0.000000 0.000000 0.000000 2.784011 -2.730297 41.503825 2.071867 -0.798536 -1.660151 -8.338848 13.218233 8.027990 19.858232 -8.128056 -20.468120 0.000000 0.000000 0.000000 1.312160 -35.380465 12.119710 3.524569 -49.276747 -6.768595 85.876573 -26.757310 -22.714747 0.000000 0.000000 0.000000 -1.685648 18.773114 8.299213 -0.599534 59.038710 -2.661658 -73.362991 15.633883 -4.266372 0.000000 0.000000 0.000000 
0.013564 0.904402 -0.002011 -2.639536 -3.086243 28.528585 5.848161 -1.346835 -51.799590 0.054044 -0.644613 25.382585 0.223502 1.916131 3.571679 0.000000 0.000000 0.000000 -4.545879 4.296342 -52.014259 3.839396 -0.046741 27.060484 -4.154230 -11.999506 1.293554 0.000000 0.000000 0.000000 2.861345 -2.818268 42.241466 1.963958 -0.739768 -1.935894 -8.606835 13.282176 7.979857 20.194692 -8.409393 -20.064110 0.000000 0.000000 0.000000 1.921015 -36.485290 12.488831 7.780466 -49.105694 -8.487924 84.513981 -24.293035 -19.715552 0.000000 0.000000 0.000000 -2.439359 18.999514 8.286580 -5.651837 57.986649 -5.054705 -70.898689 12.873069 -2.357736 0.000000 0.000000 0.000000 
0.014278 0.905853 -0.001074 -2.850280 -3.364657 29.334838 5.635008 -1.352294 -51.631410 0.788035 -0.840275 23.928728 0.182285 1.983347 4.023788 0.000000 0.000000 0.000000 -4.433621 4.429707 -52.125887 3.392630 0.108538 26.031627 -4.118315 -12.181953 2.110464 0.000000 0.000000 0.000000 2.739007 -2.719100 42.419312 2.100623 -0.808246 -1.436699 -9.126063 13.535710 7.398896 20.555781 -8.543960 -20.093964 0.000000 0.000000 0.000000 2.378321 -37.635532 12.843796 10.137079 -48.782573 -9.380913 84.484031 -22.146563 -17.719687 0.000000 0.000000 0.000000 -2.594338 19.232923 8.412950 -8.084809 56.561694 -6.038531 -71.471799 11.480978 -1.427184 0.000000 0.000000 0.000000 
0.014876 0.907760 -0.000307 -2.628827 -3.554985 29.917515 5.346760 -1.433393 -51.663458 0.975094 -0.872374 23.074090 0.195662 2.149517 4.414594 0.000000 0.000000 0.000000 -4.858691 4.332617 -52.464701 3.441645 0.084612 25.427711 -4.222147 -12.686611 2.937884 0.000000 0.000000 0.000000 2.625818 -2.674931 43.168669 2.430646 -0.913090 -2.123356 -9.596030 13.563398 7.622821 20.785199 -8.297519 -21.170991 0.000000 0.000000 0.000000 3.587048 -38.248739 12.880647 11.398240 -49.046559 -10.027672 85.015254 -19.817063 -15.774140 0.000000 0.000000 0.000000 -3.382789 19.174368 8.236266 -9.304436 55.805629 -6.466350 -72.833108 10.409648 -0.650371 0.000000 0.000000 0.000000 
